<mxfile host="app.diagrams.net" modified="2023-10-23T04:06:31.643Z" agent="Mozilla/5.0 (Windows NT 10.0; Win64; x64) AppleWebKit/537.36 (KHTML, like Gecko) Chrome/115.0.0.0 Safari/537.36" version="21.7.5" etag="E7vBHG9KaLyRXGojzXhL" type="github">
  <diagram name="Trang-1" id="MNLtQUneh9rlCiHm2gLz">
    <mxGraphModel>
      <root>
        <mxCell id="0" />
        <mxCell id="1" parent="0" />
      </root>
    </mxGraphModel>
  </diagram>
</mxfile>
